Coordinates
version=1
nRows=16
nColumns=36
inDegrees=yes

Units are S.I. units (second, meters, Newtons, ...)
If the header above contains a line with 'inDegrees', this indicates whether rotational values are in degrees (yes) or radians (no).

endheader
time	pelvis_tilt	pelvis_list	pelvis_rotation	pelvis_tx	pelvis_ty	pelvis_tz	hip_flexion_r	hip_adduction_r	hip_rotation_r	knee_angle_r	knee_angle_r_beta	ankle_angle_r	subtalar_angle_r	mtp_angle_r	hip_flexion_l	hip_adduction_l	hip_rotation_l	knee_angle_l	knee_angle_l_beta	ankle_angle_l	subtalar_angle_l	mtp_angle_l	lumbar_extension	lumbar_bending	lumbar_rotation	arm_flex_r	arm_add_r	arm_rot_r	elbow_flex_r	pro_sup_r	arm_flex_l	arm_add_l	arm_rot_l	elbow_flex_l	pro_sup_l
      1.46000000	    -17.38891568	      4.32924057	     -4.70406746	     -0.34248292	      0.69364956	     -0.56892958	     77.83194477	      0.77835971	     11.00565167	     89.97357363	      1.57033510	     25.60121221	    -19.28796245	     -7.50009779	     78.78113882	     -6.59054493	     -2.07607864	     88.04898487	      1.53674469	     24.12555115	    -12.47796323	     -7.50009779	    -27.53471162	     -0.74233860	      5.91767314	      7.51870786	    -33.57498350	    -38.08213069	    125.28498817	     95.36395054	    155.85119446	   -173.49154809	    148.14620595	    137.07730864	    108.64343362
      1.47000000	    -17.73604881	      4.27856524	     -4.71485936	     -0.33927547	      0.68581894	     -0.56767877	     78.84207870	      1.19439359	     11.16649889	     91.63035980	      1.59925147	     26.60564132	    -19.03395544	     -7.50009220	     80.15138527	     -7.04369840	     -1.89609851	     89.92492101	      1.56948595	     24.60370204	    -11.85078016	     -7.50009220	    -27.91539407	     -0.65933169	      6.33571793	      6.69001139	    -28.15959205	    -36.59031355	    125.18998626	     96.20807981	    160.34919225	   -174.49864401	    153.58436192	    130.93996982	    107.74391283
      1.48000000	    -18.05502261	      4.28993826	     -4.84452075	     -0.33611737	      0.67851717	     -0.56607011	     79.86633212	      1.66247114	     11.27626940	     93.19519813	      1.62656305	     27.09382025	    -19.18085982	     -7.50009048	     81.39356465	     -7.57999900	     -1.80996023	     91.66503484	      1.59985667	     24.82454308	    -11.64008536	     -7.50009048	    -28.21077633	     -0.68543996	      6.04459661	      6.91424233	    -23.12442477	    -33.47666486	    124.35811591	     96.60904796	    164.03542549	   -175.33907176	    157.43381140	    125.39635048	    107.33320248
      1.49000000	    -18.38838755	      4.18176335	     -5.07228581	     -0.33285627	      0.67190659	     -0.56437250	     80.81221433	      2.19589515	     11.18911871	     94.56183635	      1.65041539	     27.64656381	    -19.12041471	     -7.50008444	     82.50414717	     -8.23277235	     -1.65365148	     93.28023036	      1.62804715	     25.59311421	    -11.01090958	     -7.50008444	    -28.41907181	     -0.63640746	      6.47214043	      6.51841988	    -18.64759845	    -31.56766846	    123.74226934	     98.37333229	    168.07864788	   -175.64125811	    161.91373225	    120.02336228	    106.98711686
      1.50000000	    -18.65441807	      3.96985294	     -5.24902403	     -0.32966009	      0.66594274	     -0.56316550	     81.60426095	      2.57793331	     10.91648074	     95.77988256	      1.67167431	     27.98446393	    -19.27059355	     -7.50008334	     83.40421694	     -8.75899042	     -1.48704062	     94.66196951	      1.65216304	     26.14017485	    -11.26010068	     -7.50008334	    -28.58723310	     -0.50959138	      5.90498139	      7.17738940	    -14.78015981	    -28.07475676	    122.34284548	     98.77299251	    171.38459877	   -175.94221762	    165.22829895	    115.90655983	    106.84692224
      1.51000000	    -18.76462409	      3.61752080	     -5.33551221	     -0.32655471	      0.66073045	     -0.56240209	     82.07049231	      2.84996856	     10.54837147	     96.85868845	      1.69050302	     28.39055044	    -19.38110671	     -7.50008268	     83.99691694	     -9.19571998	     -1.25958357	     95.84331061	      1.67278134	     26.88998648	    -11.60495317	     -7.50008268	    -28.92831706	     -0.15682697	      5.15523491	      8.05602377	    -11.39071471	    -24.89056750	    121.46289300	     99.10093248	    174.57131666	   -175.84604129	    168.34935442	    112.92522220	    106.84678640
      1.52000000	    -18.82711336	      3.23741617	     -5.34778910	     -0.32345336	      0.65614716	     -0.56217565	     82.37680343	      2.89854800	     10.06595234	     97.80217753	      1.70697001	     29.50764149	    -18.76577144	     -7.50006788	     84.32460074	     -9.34665014	     -0.83947192	     96.82374293	      1.68989311	     28.36830603	    -11.23835162	     -7.50006788	    -29.11072735	      0.25678411	      4.51455291	      8.85486175	     -9.16050666	    -21.51608074	    119.96390413	    104.40654565	    177.91534453	   -175.51670163	    171.67080302	    110.51109820	    108.93815729
      1.53000000	    -18.71895694	      2.95972960	     -5.45742380	     -0.32039110	      0.65229076	     -0.56194214	     82.44542044	      2.99168619	      9.72422965	     98.60432344	      1.72097010	     30.03637580	    -18.81264827	     -7.50006654	     84.26605199	     -9.41607812	     -0.44265792	     97.58267214	      1.70313892	     29.53226868	    -11.43334648	     -7.50006654	    -29.43897771	      0.51233053	      1.91193754	     11.48695949	     -6.91911492	    -15.81240900	    117.85682437	    104.68074015	    179.43944902	   -174.85359886	    173.08187184	    111.23732028	    109.05564515
      1.54000000	    -18.44563297	      2.68529342	     -5.61316909	     -0.31734657	      0.64918516	     -0.56183181	     82.28368934	      3.11840436	      9.42853830	     99.31563892	      1.73338490	     30.66416345	    -18.63526901	     -7.50006503	     83.99158778	     -9.40315761	      0.07109884	     98.31454233	      1.71591247	     30.67427129	    -11.43036761	     -7.50006503	    -29.83810497	      0.77568116	     -2.18244986	     15.47681011	     -4.57452689	     -8.81920215	    114.75015378	    104.94199748	    179.71880009	   -173.78333724	    172.63992860	    114.36712078	    109.07818618
      1.55000000	    -18.21491395	      2.36267531	     -5.69682689	     -0.31404421	      0.64701049	     -0.56208196	     81.99776243	      3.17559994	      9.11945606	     99.87728285	      1.74318743	     31.27993590	    -18.45835289	     -7.50006364	     83.75632668	     -9.18586617	      0.76671842	     98.96473784	      1.72726052	     31.42818439	    -11.55659218	     -7.50006364	    -30.11484850	      1.15771760	     -6.34431484	     19.81980778	     -2.43962999	     -2.08049075	    111.63783497	    105.11279704	    179.81208479	   -172.06488194	    172.11059282	    118.73259833	    109.07990215
      1.56000000	    -18.13201771	      2.10657727	     -5.73258679	     -0.31065122	      0.64555437	     -0.56256978	     81.77286006	      3.15162136	      8.82991368	    100.27168690	      1.75007108	     31.79600198	    -18.32222856	     -7.50006257	     83.68279831	     -8.82709754	      1.41322256	     99.52981110	      1.73712291	     31.74321044	    -11.81569642	     -7.50006257	    -30.11084636	      1.69164377	    -10.60361554	     24.54256665	     -0.17475041	      4.28725837	    108.67504155	    105.21322998	    179.85892217	   -169.72071451	    171.07456816	    123.74822316	    109.11142238
      1.57000000	    -18.16626320	      2.02624509	     -5.74658454	     -0.30745443	      0.64443111	     -0.56302229	     81.66587140	      3.09604035	      8.72495623	    100.58761597	      1.75558509	     32.30434464	    -18.16102546	     -7.50006128	     83.72193821	     -8.40490493	      1.81123796	    100.00132685	      1.74535241	     31.83610679	    -12.34253464	     -7.50006128	    -29.64085939	      2.28989386	    -15.11329989	     29.68222340	      2.59196600	     10.14357701	    105.47586801	    105.24060771	    179.88435726	   -166.85311131	    168.70617783	    128.95210845	    108.93791600
      1.58000000	    -18.27723593	      2.01625412	     -5.76731237	     -0.30447342	      0.64388770	     -0.56326301	     81.57689407	      3.08367449	      8.70756828	    100.76728634	      1.75872092	     32.72795212	    -18.25624301	     -7.50006005	     83.76290136	     -7.99377806	      2.11817661	    100.32062151	      1.75092515	     31.76186863	    -12.94807976	     -7.50006005	    -28.83199967	      3.00956280	    -19.59311271	     35.03647071	      5.80658311	     15.33339676	    102.25134614	    105.23905369	    179.90094715	   -163.15774247	    165.25084438	    134.15422541	    108.68647640
      1.59000000	    -18.47823913	      1.99636966	     -5.84296430	     -0.30149929	      0.64447431	     -0.56320842	     81.40786501	      3.19491144	      8.69639372	    100.68615808	      1.75730497	     33.07243957	    -18.61997513	     -7.50005901	     83.70489489	     -7.68248101	      2.46263206	    100.38845717	      1.75210911	     31.59028188	    -13.35932987	     -7.50005901	    -27.90709507	      3.85053884	    -23.81279549	     40.44932578	      9.35305199	     19.62609762	     99.30665392	    105.24365056	    179.90978000	   -158.45590866	    160.77852369	    139.14999661	    108.37029764
      1.60000000	    -18.71828532	      2.05148849	     -6.01114511	     -0.29860638	      0.64610129	     -0.56287086	     81.14460994	      3.42967050	      8.78256011	    100.34644555	      1.75137587	     33.14577245	    -19.18459046	     -7.50005210	     83.51695778	     -7.49211309	      2.69483361	    100.22511776	      1.74925830	     31.07299174	    -14.11726956	     -7.50005210	    -26.89359087	      4.72805550	    -27.48404339	     45.74616964	     13.19228139	     22.79120443	     96.71911513	    105.52447061	    179.91258843	   -152.59882526	    155.29523318	    143.65818873	    105.69360353
      1.61000000	    -18.87813324	      2.16340747	     -6.15936392	     -0.29586379	      0.64870692	     -0.56247914	     80.72330578	      3.60245325	      8.88721121	     99.87253879	      1.74310463	     33.30747426	    -19.41096742	     -7.50005118	     83.13350377	     -7.37656933	      2.81109516	     99.90154409	      1.74361087	     31.01057699	    -13.87679267	     -7.50005118	    -25.90846284	      5.56727539	    -30.66467241	     51.09883980	     16.95711049	     25.17401379	     94.49644827	    105.57874770	    179.91050606	   -145.77604816	    148.56048226	    146.95696098	    105.25557167
